# xmcd
#
# Track frame offsets: 
#        150
#        18556
#        37347
#        62105
#        73261
#        93341
#        105266
#        122792
#        138403
#        153830
#        167540
#        191694
#        207487
#        233738
#        247966
#        263266
#
# Disc length: 3774 seconds
#
# Revision: 0
# Processed by: cddbd v1.5.2PL0 Copyright (c) Steve Scherf et al.
# Submitted via: ExactAudioCopy v0.99pb3
#
DISCID=d90ebc10
DTITLE=Big Joe Louis and His Blues Kings - Big Joe Louis and His Blues Kin
DTITLE=gs
DYEAR=2002
DGENRE=Blues
TTITLE0=What's The Matter With You?
TTITLE1=Down Home Blues
TTITLE2=Now She's Gone
TTITLE3=Monkey Motion
TTITLE4=You Can't Live Long (Drink On Little Girl)
TTITLE5=These You Girls
TTITLE6=I Cried Last Night
TTITLE7=Hey, Hey Now Baby
TTITLE8=I Think I Need A Shot
TTITLE9=She Felt Too Good
TTITLE10=Bloody Tears
TTITLE11=Mean Old Frisco Blues
TTITLE12=I Want You To Love Me
TTITLE13=My Love Is Here To Stay
TTITLE14=Ice Cream Man
TTITLE15=Back At Home
EXTD=
EXTT0=
EXTT1=
EXTT2=
EXTT3=
EXTT4=
EXTT5=
EXTT6=
EXTT7=
EXTT8=
EXTT9=
EXTT10=
EXTT11=
EXTT12=
EXTT13=
EXTT14=
EXTT15=
PLAYORDER=
